<svg id="linear" width="1500" height="400" xmlns="http://www.w3.org/2000/svg"><rect x="1113.8179733236768" y="100" height="40" width="36.182026676323176" style="fill:lightpink"></rect><rect x="430.4091978996922" y="100" height="40" width="2.058060232965204" style="fill:lightpink"></rect><rect x="50" y="100" height="40" width="38.30647594906151" style="fill:lightpink"></rect><rect style="fill:bisque" x="93.02009777294948" y="100" height="40" width="171.41650069406722"></rect><rect style="fill:turquoise" x="432.4672581326574" y="100" height="40" width="672.3218057818817"></rect><rect style="fill:turquoise" x="269.415776449997" y="100" height="40" width="160.99342144969518"></rect><rect style="fill:lightgreen" x="1104.7890639145392" y="100" height="40" width="9.028909409137668"></rect><rect style="fill:lightgreen" x="1024.192769630032" y="100" height="40" width="4.846399903434076"></rect><rect style="fill:lightgreen" x="855.830164765526" y="100" height="40" width="13.211418914841033"></rect><rect style="fill:lightgreen" x="740.7779588387954" y="100" height="40" width="4.315287585249507"></rect><rect style="fill:lightgreen" x="713.2928963727443" y="100" height="40" width="4.514454704568834"></rect><rect style="fill:lightgreen" x="599.0373589232905" y="100" height="40" width="6.30695877844164"></rect><rect style="fill:lightgreen" x="544.3327901502806" y="100" height="40" width="9.294465568229839"></rect><rect style="fill:lightgreen" x="432.4672581326574" y="100" height="40" width="9.493632687549052"></rect><rect style="fill:lightgreen" x="415.9363872291629" y="100" height="40" width="14.47281067052927"></rect><rect style="fill:lightgreen" x="333.01647655259825" y="100" height="40" width="13.742531233025545"></rect><rect style="fill:lightgreen" x="264.4365984670167" y="100" height="40" width="5.111956062526417"></rect><rect style="fill:lightgreen" x="156.35524171645847" y="100" height="40" width="4.58084374434182"></rect><rect style="fill:lightgreen" x="88.30647594906151" y="100" height="40" width="4.713621823887976"></rect><rect x="764.3460679582353" y="100" height="40" width="0.39833423863831285" style="fill:deepskyblue"></rect><rect x="616.0993421449696" y="100" height="40" width="2.9875067897880854" style="fill:deepskyblue"></rect><rect x="337.3981531776208" y="100" height="40" width="0.13277807954614218" style="fill:deepskyblue"></rect><rect x="50" y="100" height="40" width="1100" stroke="saddlebrown" stroke-width="1" fill="none"></rect><line style="stroke:black;stroke-width:0.7" x1="88.30647594906151" y1="100" x2="88.30647594906151" y2="140"></line><line style="stroke:black;stroke-width:0.7" x1="93.02009777294948" y1="100" x2="93.02009777294948" y2="140"></line><line style="stroke:black;stroke-width:0.7" x1="156.35524171645847" y1="100" x2="156.35524171645847" y2="140"></line><line style="stroke:black;stroke-width:0.7" x1="160.93608546080029" y1="100" x2="160.93608546080029" y2="140"></line><line style="stroke:black;stroke-width:0.7" x1="264.4365984670167" y1="100" x2="264.4365984670167" y2="140"></line><line style="stroke:black;stroke-width:0.7" x1="269.415776449997" y1="100" x2="269.415776449997" y2="140"></line><line style="stroke:black;stroke-width:0.7" x1="269.54855452954314" y1="100" x2="269.54855452954314" y2="140"></line><line style="stroke:black;stroke-width:0.7" x1="333.01647655259825" y1="100" x2="333.01647655259825" y2="140"></line><line style="stroke:black;stroke-width:0.7" x1="337.53093125716697" y1="100" x2="337.53093125716697" y2="140"></line><line style="stroke:black;stroke-width:0.7" x1="337.3981531776208" y1="100" x2="337.3981531776208" y2="140"></line><line style="stroke:black;stroke-width:0.7" x1="342.17816404128195" y1="100" x2="342.17816404128195" y2="140"></line><line style="stroke:black;stroke-width:0.7" x1="342.24455308105496" y1="100" x2="342.24455308105496" y2="140"></line><line style="stroke:black;stroke-width:0.7" x1="346.7590077856238" y1="100" x2="346.7590077856238" y2="140"></line><line style="stroke:black;stroke-width:0.7" x1="415.9363872291629" y1="100" x2="415.9363872291629" y2="140"></line><line style="stroke:black;stroke-width:0.7" x1="420.4508419337316" y1="100" x2="420.4508419337316" y2="140"></line><line style="stroke:black;stroke-width:0.7" x1="420.9155652121431" y1="100" x2="420.9155652121431" y2="140"></line><line style="stroke:black;stroke-width:0.7" x1="425.49640895648497" y1="100" x2="425.49640895648497" y2="140"></line><line style="stroke:black;stroke-width:0.7" x1="425.5627979962581" y1="100" x2="425.5627979962581" y2="140"></line><line style="stroke:black;stroke-width:0.7" x1="430.4091978996922" y1="100" x2="430.4091978996922" y2="140"></line><line style="stroke:black;stroke-width:0.7" x1="432.4672581326574" y1="100" x2="432.4672581326574" y2="140"></line><line style="stroke:black;stroke-width:0.7" x1="436.7825457179069" y1="100" x2="436.7825457179069" y2="140"></line><line style="stroke:black;stroke-width:0.7" x1="441.1642223429296" y1="100" x2="441.1642223429296" y2="140"></line><line style="stroke:black;stroke-width:0.7" x1="441.96089082020643" y1="100" x2="441.96089082020643" y2="140"></line><line style="stroke:black;stroke-width:0.7" x1="544.3327901502806" y1="100" x2="544.3327901502806" y2="140"></line><line style="stroke:black;stroke-width:0.7" x1="548.9136338946225" y1="100" x2="548.9136338946225" y2="140"></line><line style="stroke:black;stroke-width:0.7" x1="549.1128010139416" y1="100" x2="549.1128010139416" y2="140"></line><line style="stroke:black;stroke-width:0.7" x1="553.6272557185105" y1="100" x2="553.6272557185105" y2="140"></line><line style="stroke:black;stroke-width:0.7" x1="599.0373589232905" y1="100" x2="599.0373589232905" y2="140"></line><line style="stroke:black;stroke-width:0.7" x1="600.6970849176173" y1="100" x2="600.6970849176173" y2="140"></line><line style="stroke:black;stroke-width:0.7" x1="605.3443177017322" y1="100" x2="605.3443177017322" y2="140"></line><line style="stroke:black;stroke-width:0.7" x1="605.4107067415052" y1="100" x2="605.4107067415052" y2="140"></line><line style="stroke:black;stroke-width:0.7" x1="619.0868489347577" y1="100" x2="619.0868489347577" y2="140"></line><line style="stroke:black;stroke-width:0.7" x1="616.0993421449696" y1="100" x2="616.0993421449696" y2="140"></line><line style="stroke:black;stroke-width:0.7" x1="661.2438891906572" y1="100" x2="661.2438891906572" y2="140"></line><line style="stroke:black;stroke-width:0.7" x1="713.2928963727443" y1="100" x2="713.2928963727443" y2="140"></line><line style="stroke:black;stroke-width:0.7" x1="717.8073510773131" y1="100" x2="717.8073510773131" y2="140"></line><line style="stroke:black;stroke-width:0.7" x1="740.7779588387954" y1="100" x2="740.7779588387954" y2="140"></line><line style="stroke:black;stroke-width:0.7" x1="745.0932464240449" y1="100" x2="745.0932464240449" y2="140"></line><line style="stroke:black;stroke-width:0.7" x1="764.7444021968736" y1="100" x2="764.7444021968736" y2="140"></line><line style="stroke:black;stroke-width:0.7" x1="764.3460679582353" y1="100" x2="764.3460679582353" y2="140"></line><line style="stroke:black;stroke-width:0.7" x1="855.830164765526" y1="100" x2="855.830164765526" y2="140"></line><line style="stroke:black;stroke-width:0.7" x1="860.4110085098678" y1="100" x2="860.4110085098678" y2="140"></line><line style="stroke:black;stroke-width:0.7" x1="864.327961856479" y1="100" x2="864.327961856479" y2="140"></line><line style="stroke:black;stroke-width:0.7" x1="869.041583680367" y1="100" x2="869.041583680367" y2="140"></line><line style="stroke:black;stroke-width:0.7" x1="989.3385237491702" y1="100" x2="989.3385237491702" y2="140"></line><line style="stroke:black;stroke-width:0.7" x1="1024.192769630032" y1="100" x2="1024.192769630032" y2="140"></line><line style="stroke:black;stroke-width:0.7" x1="1028.7736133743738" y1="100" x2="1028.7736133743738" y2="140"></line><line style="stroke:black;stroke-width:0.7" x1="1029.039169533466" y1="100" x2="1029.039169533466" y2="140"></line><line style="stroke:black;stroke-width:0.7" x1="1104.7890639145392" y1="100" x2="1104.7890639145392" y2="140"></line><line style="stroke:black;stroke-width:0.7" x1="1109.1707405395618" y1="100" x2="1109.1707405395618" y2="140"></line><line style="stroke:black;stroke-width:0.7" x1="1109.303518619108" y1="100" x2="1109.303518619108" y2="140"></line><line style="stroke:black;stroke-width:0.7" x1="1113.8179733236768" y1="100" x2="1113.8179733236768" y2="140"></line><text x="90.63009234111897" y="91" text-anchor="start" style="fill: black; font-size:10" alignment-base="middle" transform="rotate(270,94.63009234111897,91)">MT-TF</text><text x="124.65447522481743" y="91" text-anchor="start" style="fill: black; font-size:10" alignment-base="middle" transform="rotate(270,128.65447522481742,91)">MT-RNR1</text><text x="158.61246906874283" y="91" text-anchor="start" style="fill: black; font-size:10" alignment-base="middle" transform="rotate(270,162.61246906874283,91)">MT-TV</text><text x="212.65314744402195" y="91" text-anchor="start" style="fill: black; font-size:10" alignment-base="middle" transform="rotate(270,216.65314744402195,91)">MT-RNR2</text><text x="266.8929929386203" y="91" text-anchor="start" style="fill: black; font-size:10" alignment-base="middle" transform="rotate(270,270.8929929386203,91)">MT-TL1</text><text x="301.24932102118413" y="91" text-anchor="start" style="fill: black; font-size:10" alignment-base="middle" transform="rotate(270,305.24932102118413,91)">MT-ND1</text><filter id="blurMe"><feGaussianBlur in="SourceGraphic" stdDeviation="4"></feGaussianBlur></filter><text x="335.2737039048826" y="88" text-anchor="start" style="fill: black; font-size:10" alignment-base="middle" transform="rotate(270,339.2737039048826,91)">MT-TI</text><line x1="335.2737039048826" y1="100" x2="331.2737039048826" y2="96" style="stroke:black; stroke-width:1"></line><text x="339.75496408956485" y="91" text-anchor="start" style="fill: black; font-size:10" alignment-base="middle" transform="rotate(270,343.75496408956485,91)">MT-TQ</text><line x1="339.75496408956485" y1="100" x2="339.75496408956485" y2="96" stroke="black" stroke-width="1"></line><text x="344.46858591345284" y="96" text-anchor="start" style="fill: black; font-size:10" alignment-base="middle" transform="rotate(270,348.46858591345284,91)">MT-TM</text><text x="381.3145029875068" y="91" text-anchor="start" style="fill: black; font-size:10" alignment-base="middle" transform="rotate(270,385.3145029875068,91)">MT-ND2</text><line x1="344.46858591345284" y1="100" x2="348.46858591345284" y2="96" style="stroke:black; stroke-width:1"></line><text x="418.1604200615607" y="84" text-anchor="start" style="fill: black; font-size:10" alignment-base="middle" transform="rotate(270,422.1604200615607,91)">MT-TW</text><line x1="418.1604200615607" y1="100" x2="410.1604200615607" y2="96" style="stroke:black; stroke-width:1"></line><text x="423.17279256442754" y="88" text-anchor="start" style="fill: black; font-size:10" alignment-base="middle" transform="rotate(270,427.17279256442754,91)">MT-TA</text><line x1="423.17279256442754" y1="100" x2="419.17279256442754" y2="96" style="stroke:black; stroke-width:1"></line><text x="427.9528034280886" y="91" text-anchor="start" style="fill: black; font-size:10" alignment-base="middle" transform="rotate(270,431.9528034280886,91)">MT-TN</text><line x1="427.9528034280886" y1="100" x2="427.9528034280886" y2="96" stroke="black" stroke-width="1"></line><text x="434.62490192528213" y="96" text-anchor="start" style="fill: black; font-size:10" alignment-base="middle" transform="rotate(270,438.62490192528213,91)">MT-TC</text><line x1="434.62490192528213" y1="100" x2="438.62490192528213" y2="96" style="stroke:black; stroke-width:1"></line><text x="438.94018951053175" y="100" text-anchor="start" style="fill: black; font-size:10" alignment-base="middle" transform="rotate(270,442.94018951053175,91)">MT-TY</text><text x="493.11364596535697" y="91" text-anchor="start" style="fill: black; font-size:10" alignment-base="middle" transform="rotate(270,497.11364596535697,91)">MT-CO1</text><line x1="438.94018951053175" y1="100" x2="446.94018951053175" y2="96" style="stroke:black; stroke-width:1"></line><text x="546.5900175025649" y="88" text-anchor="start" style="fill: black; font-size:10" alignment-base="middle" transform="rotate(270,550.5900175025649,91)">MT-TS1</text><line x1="546.5900175025649" y1="100" x2="542.5900175025649" y2="96" style="stroke:black; stroke-width:1"></line><text x="551.3368338463395" y="91" text-anchor="start" style="fill: black; font-size:10" alignment-base="middle" transform="rotate(270,555.3368338463395,91)">MT-TD</text><text x="576.299112801014" y="91" text-anchor="start" style="fill: black; font-size:10" alignment-base="middle" transform="rotate(270,580.299112801014,91)">MT-CO2</text><text x="602.9875067897882" y="91" text-anchor="start" style="fill: black; font-size:10" alignment-base="middle" transform="rotate(270,606.9875067897882,91)">MT-TK</text><text x="612.2487778381314" y="91" text-anchor="start" style="fill: black; font-size:10" alignment-base="middle" transform="rotate(270,616.2487778381314,91)">MT-ATP8</text><text x="638.6716156678134" y="91" text-anchor="start" style="fill: black; font-size:10" alignment-base="middle" transform="rotate(270,642.6716156678134,91)">MT-ATP6</text><text x="687.2351982618143" y="91" text-anchor="start" style="fill: black; font-size:10" alignment-base="middle" transform="rotate(270,691.2351982618143,91)">MT-CO3</text><text x="715.5169292051421" y="91" text-anchor="start" style="fill: black; font-size:10" alignment-base="middle" transform="rotate(270,719.5169292051421,91)">MT-TG</text><text x="729.2594604381676" y="91" text-anchor="start" style="fill: black; font-size:10" alignment-base="middle" transform="rotate(270,733.2594604381676,91)">MT-ND3</text><text x="742.9024081115336" y="91" text-anchor="start" style="fill: black; font-size:10" alignment-base="middle" transform="rotate(270,746.9024081115336,91)">MT-TR</text><text x="754.9188243104593" y="91" text-anchor="start" style="fill: black; font-size:10" alignment-base="middle" transform="rotate(270,758.9188243104593,91)">MT-ND4L</text><text x="810.0549218419941" y="91" text-anchor="start" style="fill: black; font-size:10" alignment-base="middle" transform="rotate(270,814.0549218419941,91)">MT-ND4</text><line x1="551.3368338463395" y1="100" x2="551.3368338463395" y2="96" stroke="black" stroke-width="1"></line><text x="858.0873921178104" y="88" text-anchor="start" style="fill: black; font-size:10" alignment-base="middle" transform="rotate(270,862.0873921178104,91)">MT-TH</text><line x1="858.0873921178104" y1="100" x2="854.0873921178104" y2="96" style="stroke:black; stroke-width:1"></line><text x="862.3362906632868" y="91" text-anchor="start" style="fill: black; font-size:10" alignment-base="middle" transform="rotate(270,866.3362906632868,91)">MT-TS2</text><line x1="862.3362906632868" y1="100" x2="862.3362906632868" y2="96" stroke="black" stroke-width="1"></line><text x="866.6515782485365" y="96" text-anchor="start" style="fill: black; font-size:10" alignment-base="middle" transform="rotate(270,870.6515782485365,91)">MT-TL2</text><text x="929.156859194882" y="91" text-anchor="start" style="fill: black; font-size:10" alignment-base="middle" transform="rotate(270,933.156859194882,91)">MT-ND5</text><text x="1006.7324521697145" y="91" text-anchor="start" style="fill: black; font-size:10" alignment-base="middle" transform="rotate(270,1010.7324521697145,91)">MT-ND6</text><text x="1026.4499969823164" y="91" text-anchor="start" style="fill: black; font-size:10" alignment-base="middle" transform="rotate(270,1030.4499969823164,91)">MT-TE</text><text x="1066.8809222041161" y="91" text-anchor="start" style="fill: black; font-size:10" alignment-base="middle" transform="rotate(270,1070.8809222041161,91)">MT-CYB</text><line x1="866.6515782485365" y1="100" x2="870.6515782485365" y2="96" style="stroke:black; stroke-width:1"></line><text x="1106.946707707164" y="88" text-anchor="start" style="fill: black; font-size:10" alignment-base="middle" transform="rotate(270,1110.946707707164,91)">MT-TT</text><line x1="1106.946707707164" y1="100" x2="1102.946707707164" y2="96" style="stroke:black; stroke-width:1"></line><text x="1111.5275514515058" y="91" text-anchor="start" style="fill: black; font-size:10" alignment-base="middle" transform="rotate(270,1115.5275514515058,91)">MT-TP</text><line x1="1111.5275514515058" y1="100" x2="1111.5275514515058" y2="96" stroke="black" stroke-width="1"></line></svg>