<svg id="circle" width="510" height="450" xmlns="http://www.w3.org/2000/svg"><path d="M 386.7025056255315 309.2831174870824 A 155 155 0 0 0 387.7433044995719 307.78751708261075 L 260 220 Z" fill="lightpink"></path><path d="M 293.6449701145908 68.69561808728642 A 155 155 0 0 0 228.19351430031583 68.29849220447483 L 260 220 Z" fill="lightpink"></path><path d="M 405.81749523236107 167.4428112989255 A 155 155 0 0 0 297.70602500848486 69.65620838205683 L 260 220 Z" fill="bisque"></path><path d="M 220.4155683632161 70.13982259455057 A 155 155 0 1 0 386.7025056255315 309.2831174870824 L 260 220 Z" fill="turquoise"></path><path d="M 387.7433044995719 307.78751708261075 A 155 155 0 0 0 407.2531014185221 171.61070239581431 L 260 220 Z" fill="turquoise"></path><path d="M 228.19351430031583 68.29849220447483 A 155 155 0 0 0 220.4155683632161 70.13982259455057 L 260 220 Z" fill="lightgreen"></path><path d="M 161.22600473430765 100.54834509621483 A 155 155 0 0 0 157.95754213933333 103.32808052597203 L 260 220 Z" fill="lightgreen"></path><path d="M 105.08976268518529 225.27431275786606 A 155 155 0 0 0 105.92827971715192 236.93827054583247 L 260 220 Z" fill="lightgreen"></path><path d="M 145.74931722282844 324.7462719381941 A 155 155 0 0 0 148.36563819757134 327.5303178873961 L 260 220 Z" fill="lightgreen"></path><path d="M 163.39355052501145 341.2113605229992 A 155 155 0 0 0 166.5509386459801 343.66193000294237 L 260 220 Z" fill="lightgreen"></path><path d="M 255.26910079398658 374.9277850893846 A 155 155 0 0 0 260.8522776159531 374.9976568302416 L 260 220 Z" fill="lightgreen"></path><path d="M 300.5780597386698 369.59418794807823 A 155 155 0 0 0 308.4590925849381 367.2301475440556 L 260 220 Z" fill="lightgreen"></path><path d="M 381.67703118538236 316.01926932606546 A 155 155 0 0 0 386.7025056255315 309.2831174870824 L 260 220 Z" fill="lightgreen"></path><path d="M 387.7433044995719 307.78751708261075 A 155 155 0 0 0 394.55604815216043 296.9393911184217 L 260 220 Z" fill="lightgreen"></path><path d="M 413.80437464671274 239.21495093758037 A 155 155 0 0 0 414.8375322231218 227.09497111013906 L 260 220 Z" fill="lightgreen"></path><path d="M 407.2897587954818 171.72239697366098 A 155 155 0 0 0 405.81749523236107 167.4428112989255 L 260 220 Z" fill="lightgreen"></path><path d="M 351.77589813854934 95.09129525584447 A 155 155 0 0 0 348.4765299331232 92.73294357535744 L 260 220 Z" fill="lightgreen"></path><path d="M 297.70602500848486 69.65620838205683 A 155 155 0 0 0 293.6449701145908 68.69561808728642 L 260 220 Z" fill="lightgreen"></path><path d="M 134.94354631272245 311.5744691011736 A 155 155 0 0 0 134.73551265026748 311.28969388166826 L 260 220 Z" fill="deepskyblue"></path><path d="M 245.7664006505078 374.34508301062954 A 155 155 0 0 0 243.13476391285514 374.0797319952396 L 260 220 Z" fill="deepskyblue"></path><path d="M 414.61148432046963 230.9676303831398 A 155 155 0 0 0 414.6031217113549 231.08488868252505 L 260 220 Z" fill="deepskyblue"></path><circle cx="260" cy="220" r="155" stroke="saddlebrown" stroke-width="1" fill="transparent"></circle><circle cx="260" cy="220" r="145" stroke="none" fill="#ffffff90" filter="url(#blurMe)"></circle><circle cx="260" cy="220" r="135" stroke="none" fill="#ffffffd0" filter="url(#blurMe)"></circle><circle cx="260" cy="220" r="135" stroke="#8b4513c0" stroke-width="1" fill="white"></circle><line x1="293.6449701145909" y1="68.69561808728642" x2="289.303683648192" y2="88.2187641405398" stroke="saddlebrown" stroke-width="1"></line><line x1="297.7060250084849" y1="69.65620838205686" x2="292.840731459003" y2="89.05540730050114" stroke="saddlebrown" stroke-width="1"></line><line x1="348.4765299331232" y1="92.73294357535744" x2="337.06020349013954" y2="109.15449924305325" stroke="saddlebrown" stroke-width="1"></line><line x1="351.77589813854934" y1="95.09129525584447" x2="339.9338467658333" y2="111.2085474808968" stroke="saddlebrown" stroke-width="1"></line><line x1="405.81749523236107" y1="167.4428112989255" x2="387.00233455721775" y2="174.22438403454802" stroke="saddlebrown" stroke-width="1"></line><line x1="407.2531014185221" y1="171.61070239581431" x2="388.25270123548694" y2="177.8544827318383" stroke="saddlebrown" stroke-width="1"></line><line x1="407.2897587954818" y1="171.72239697366098" x2="388.28462862832293" y2="177.9517651060918" stroke="saddlebrown" stroke-width="1"></line><line x1="414.8375322231218" y1="227.09497111013906" x2="394.85849580723516" y2="226.17949096689532" stroke="saddlebrown" stroke-width="1"></line><line x1="414.6031217113549" y1="231.08488868252505" x2="394.6543318131156" y2="229.65458046542503" stroke="saddlebrown" stroke-width="1"></line><line x1="414.61148432046963" y1="230.9676303831398" x2="394.6616153758929" y2="229.5524522691863" stroke="saddlebrown" stroke-width="1"></line><line x1="414.25444259171456" y1="235.18443086583838" x2="394.3506435476224" y2="233.2251494637947" stroke="saddlebrown" stroke-width="1"></line><line x1="414.24867336248246" y1="235.24292511016847" x2="394.34561873506533" y2="233.27609606369512" stroke="saddlebrown" stroke-width="1"></line><line x1="413.80437464671274" y1="239.21495093758037" x2="393.9586488858466" y2="236.7356024295055" stroke="saddlebrown" stroke-width="1"></line><line x1="394.55604815216043" y1="296.9393911184217" x2="377.19397742284946" y2="287.0117277483028" stroke="saddlebrown" stroke-width="1"></line><line x1="392.5275363990123" y1="300.38315803704455" x2="375.42720912172035" y2="290.0111376451678" stroke="saddlebrown" stroke-width="1"></line><line x1="392.3136931901329" y1="300.73466785952223" x2="375.24095858495446" y2="290.3172913615194" stroke="saddlebrown" stroke-width="1"></line><line x1="390.15616229923626" y1="304.1687199352281" x2="373.36181877675415" y2="293.30823994358576" stroke="saddlebrown" stroke-width="1"></line><line x1="390.12423504284345" y1="304.21807083111577" x2="373.3340111663475" y2="293.35122298193954" stroke="saddlebrown" stroke-width="1"></line><line x1="387.7433044995719" y1="307.7875170826107" x2="371.260297467369" y2="296.4600955235642" stroke="saddlebrown" stroke-width="1"></line><line x1="386.70250562553156" y1="309.28311748708234" x2="370.3537952222371" y2="297.76271523068465" stroke="saddlebrown" stroke-width="1"></line><line x1="384.46351279964665" y1="312.3787528686775" x2="368.40370469646643" y2="300.4589137888482" stroke="saddlebrown" stroke-width="1"></line><line x1="382.11271127781765" y1="315.46457848008515" x2="366.35623240326055" y2="303.14656835362257" stroke="saddlebrown" stroke-width="1"></line><line x1="381.67703118538236" y1="316.01926932606546" x2="365.97676909694593" y2="303.6296861872183" stroke="saddlebrown" stroke-width="1"></line><line x1="308.4590925849381" y1="367.2301475440556" x2="302.2063064449461" y2="348.23270915127426" stroke="saddlebrown" stroke-width="1"></line><line x1="304.5905619056557" y1="368.4475725262555" x2="298.8369410146033" y2="349.29304703899675" stroke="saddlebrown" stroke-width="1"></line><line x1="304.4216532016729" y1="368.49820445658696" x2="298.6898269821022" y2="349.33714581702736" stroke="saddlebrown" stroke-width="1"></line><line x1="300.5780597386698" y1="369.59418794807823" x2="295.3421810627124" y2="350.29171208381" stroke="saddlebrown" stroke-width="1"></line><line x1="260.85227761595314" y1="374.9976568302416" x2="260.7423063106689" y2="354.9979591747266" stroke="saddlebrown" stroke-width="1"></line><line x1="259.38283197134206" y1="374.9987712971442" x2="259.462466555685" y2="354.9989298394481" stroke="saddlebrown" stroke-width="1"></line><line x1="255.26910079398658" y1="374.9277850893846" x2="255.87953940121412" y2="354.9371031423672" stroke="saddlebrown" stroke-width="1"></line><line x1="255.21035045760314" y1="374.92597992996855" x2="255.8283697533963" y2="354.9355309067468" stroke="saddlebrown" stroke-width="1"></line><line x1="243.1347639128552" y1="374.0797319952396" x2="245.31092340797065" y2="354.1984762539184" stroke="saddlebrown" stroke-width="1"></line><line x1="245.7664006505078" y1="374.34508301062954" x2="247.6029941149584" y2="354.4295884286129" stroke="saddlebrown" stroke-width="1"></line><line x1="206.87642641821117" y1="365.6121077723287" x2="213.73108107392585" y2="346.8234487049314" stroke="saddlebrown" stroke-width="1"></line><line x1="166.55093864598" y1="343.6619300029423" x2="178.60888204649874" y2="327.70555193804654" stroke="saddlebrown" stroke-width="1"></line><line x1="163.3935505250115" y1="341.2113605229992" x2="175.85889884436486" y2="325.57118497164447" stroke="saddlebrown" stroke-width="1"></line><line x1="148.36563819757134" y1="327.5303178873961" x2="162.7700719785299" y2="313.6554381599901" stroke="saddlebrown" stroke-width="1"></line><line x1="145.74931722282844" y1="324.7462719381941" x2="160.49134080697962" y2="311.2306239461691" stroke="saddlebrown" stroke-width="1"></line><line x1="134.7355126502675" y1="311.2896938816683" x2="150.8986723082975" y2="299.51037854209824" stroke="saddlebrown" stroke-width="1"></line><line x1="134.9435463127224" y1="311.5744691011736" x2="151.0798629175324" y2="299.7584085719899" stroke="saddlebrown" stroke-width="1"></line><line x1="105.92827971715192" y1="236.93827054583247" x2="125.8085016891323" y2="234.75268724959602" stroke="saddlebrown" stroke-width="1"></line><line x1="105.53786746581548" y1="232.9015352959258" x2="125.46846521216187" y2="231.23682106419346" stroke="saddlebrown" stroke-width="1"></line><line x1="105.28789645542278" y1="229.44272295537772" x2="125.2507485256908" y2="228.22430709016768" stroke="saddlebrown" stroke-width="1"></line><line x1="105.08976268518529" y1="225.27431275786606" x2="125.0781804032259" y2="224.5937562729801" stroke="saddlebrown" stroke-width="1"></line><line x1="136.89840707210152" y1="125.81402536144795" x2="152.7824835789271" y2="137.96705434706757" stroke="saddlebrown" stroke-width="1"></line><line x1="157.95754213933338" y1="103.32808052597198" x2="171.12431089554843" y2="118.38252174842721" stroke="saddlebrown" stroke-width="1"></line><line x1="161.04492780652345" y1="100.69830811265145" x2="173.81332421858497" y2="116.0920748077932" stroke="saddlebrown" stroke-width="1"></line><line x1="161.22600473430776" y1="100.54834509621475" x2="173.97103638149386" y2="115.96146185799348" stroke="saddlebrown" stroke-width="1"></line><line x1="220.41556836321595" y1="70.1398225945506" x2="225.52323696151066" y2="89.4766196791247" stroke="saddlebrown" stroke-width="1"></line><line x1="224.17828635063543" y1="69.19613787696642" x2="228.80044295055345" y2="88.65470073155137" stroke="saddlebrown" stroke-width="1"></line><line x1="224.29267030514646" y1="69.16901311049168" x2="228.90006768512757" y2="88.63107593494436" stroke="saddlebrown" stroke-width="1"></line><line x1="228.19351430031597" y1="68.2984922044748" x2="232.29757697124293" y2="87.87288030712321" stroke="saddlebrown" stroke-width="1"></line><text x="290.42911097090825" y="91.2469060351552" text-anchor="end" transform="rotate(-76.70287887017925,290.42911097090825,91.2469060351552)" fill="black" font-size="6" alignment-baseline="central" id="MT-TF" class="label">MT-TF</text><text x="314.7217838391919" y="99.54745177682308" text-anchor="end" transform="rotate(-65.56762629005975,314.7217838391919,99.54745177682308)" fill="black" font-size="6" alignment-baseline="central" id="MT-RNR1" class="label">MT-RNR1</text><text x="336.9132595642537" y="112.3540966724616" text-anchor="end" transform="rotate(-54.4541010320478,336.9132595642537,112.3540966724616)" fill="black" font-size="6" alignment-baseline="central" id="MT-TV" class="label">MT-TV</text><text x="365.9809217753219" y="140.80824399185792" text-anchor="end" transform="rotate(-36.7680608365019,365.9809217753219,140.80824399185792)" fill="black" font-size="6" alignment-baseline="central" id="MT-RNR2" class="label">MT-RNR2</text><text x="385.0794435101925" y="176.89057166720283" text-anchor="end" transform="rotate(-19.016838674633348,385.0794435101925,176.89057166720283)" fill="black" font-size="6" alignment-baseline="central" id="MT-TL1" class="label">MT-TL1</text><text x="391.08440169097264" y="202.10671541276614" text-anchor="end" transform="rotate(-7.772949483976094,391.08440169097264,202.10671541276614)" fill="black" font-size="6" alignment-baseline="central" id="MT-ND1" class="label">MT-ND1</text><text x="392.0722629615901" y="227.7593399335628" text-anchor="end" transform="rotate(3.3623030961434015,392.0722629615901,227.7593399335628)" fill="black" font-size="6" alignment-baseline="baseline" id="MT-TI" class="label">MT-TI</text><text x="391.83040502389224" y="231.13706923910155" text-anchor="end" transform="rotate(4.828897338403036,391.83040502389224,231.13706923910155)" fill="black" font-size="6" alignment-baseline="central" id="MT-TQ" class="label">MT-TQ</text><text x="391.48280550950454" y="234.68202490632007" text-anchor="end" transform="rotate(6.3715372080391095,391.48280550950454,234.68202490632007)" fill="black" font-size="6" alignment-baseline="hanging" id="MT-TM" class="label">MT-TM</text><text x="385.51426674086133" y="261.826532781285" text-anchor="end" transform="rotate(18.430200977729495,385.51426674086133,261.826532781285)" fill="black" font-size="6" alignment-baseline="central" id="MT-ND2" class="label">MT-ND2</text><text x="374.0065856427293" y="287.1251698700795" text-anchor="end" transform="rotate(30.488864747419893,374.0065856427293,287.1251698700795)" fill="black" font-size="6" alignment-baseline="baseline" id="MT-TW" class="label">MT-TW</text><text x="372.0382909158857" y="290.3612916925732" text-anchor="end" transform="rotate(32.12927756653992,372.0382909158857,290.3612916925732)" fill="black" font-size="6" alignment-baseline="middle" id="MT-TA" class="label">MT-TA</text><text x="370.0756718572749" y="293.39370862117227" text-anchor="end" transform="rotate(33.69364475828355,370.0756718572749,293.39370862117227)" fill="black" font-size="6" alignment-baseline="central" id="MT-TN" class="label">MT-TN</text><text x="367.1993161969279" y="297.5344865650833" text-anchor="end" transform="rotate(35.877240630092345,367.1993161969279,297.5344865650833)" fill="black" font-size="6" alignment-baseline="central" id="MT-TC" class="label">MT-TC</text><text x="365.25580890854974" y="300.15300799724776" text-anchor="end" transform="rotate(37.28951656708312,365.25580890854974,300.15300799724776)" fill="black" font-size="6" alignment-baseline="hanging" id="MT-TY" class="label">MT-TY</text><text x="335.8481986585513" y="328.3989887418371" text-anchor="end" transform="rotate(55.01901140684411,335.8481986585513,328.3989887418371)" fill="black" font-size="6" alignment-baseline="central" id="MT-CO1" class="label">MT-CO1</text><text x="299.7385173514615" y="346.1908880969921" text-anchor="end" transform="rotate(72.52036936447583,299.7385173514615,346.1908880969921)" fill="black" font-size="6" alignment-baseline="middle" id="MT-TS1" class="label">MT-TS1</text><text x="296.30282207113027" y="347.22183424896787" text-anchor="end" transform="rotate(74.07387289516565,296.30282207113027,347.22183424896787)" fill="black" font-size="6" alignment-baseline="central" id="MT-TD" class="label">MT-TD</text><text x="277.85600215181574" y="351.0894854179936" text-anchor="end" transform="rotate(82.24334600760457,277.85600215181574,351.0894854179936)" fill="black" font-size="6" alignment-baseline="central" id="MT-CO2" class="label">MT-CO2</text><text x="257.74246313804554" y="352.2807375520598" text-anchor="start" transform="rotate(270.97772949483976,257.74246313804554,352.2807375520598)" fill="black" font-size="6" alignment-baseline="central" id="MT-TK" class="label">MT-TK</text><text x="250.75119954617955" y="351.976322460377" text-anchor="start" transform="rotate(274.00869092884307,250.75119954617955,351.976322460377)" fill="black" font-size="6" alignment-baseline="central" id="MT-ATP8" class="label">MT-ATP8</text><text x="231.0130971417252" y="349.08543474259574" text-anchor="start" transform="rotate(282.656165127648,231.0130971417252,349.08543474259574)" fill="black" font-size="6" alignment-baseline="central" id="MT-ATP6" class="label">MT-ATP6</text><text x="196.77106348345507" y="336.2126997663626" text-anchor="start" transform="rotate(298.549701249321,196.77106348345507,336.2126997663626)" fill="black" font-size="6" alignment-baseline="central" id="MT-CO3" class="label">MT-CO3</text><text x="178.9022884671926" y="324.5296665265013" text-anchor="start" transform="rotate(307.8055404671374,178.9022884671926,324.5296665265013)" fill="black" font-size="6" alignment-baseline="central" id="MT-TG" class="label">MT-TG</text><text x="170.95515681190415" y="317.8483822125201" text-anchor="start" transform="rotate(312.3030961434003,170.95515681190415,317.8483822125201)" fill="black" font-size="6" alignment-baseline="central" id="MT-ND3" class="label">MT-ND3</text><text x="163.6079507747844" y="310.61932931865925" text-anchor="start" transform="rotate(316.76806083650195,163.6079507747844,310.61932931865925)" fill="black" font-size="6" alignment-baseline="central" id="MT-TR" class="label">MT-TR</text><text x="157.6199075192435" y="303.7950276784473" text-anchor="start" transform="rotate(320.7007061379685,157.6199075192435,303.7950276784473)" fill="black" font-size="6" alignment-baseline="central" id="MT-ND4L" class="label">MT-ND4L</text><text x="136.69933695604365" y="267.96078077888995" text-anchor="start" transform="rotate(338.74524714828897,136.69933695604365,267.96078077888995)" fill="black" font-size="6" alignment-baseline="central" id="MT-ND4" class="label">MT-ND4</text><text x="128.31686140104424" y="232.7609172369469" text-anchor="start" transform="rotate(354.46496469310154,128.31686140104424,232.7609172369469)" fill="black" font-size="6" alignment-baseline="hanging" id="MT-TH" class="label">MT-TH</text><text x="128.04596862021583" y="229.56156904607903" text-anchor="start" transform="rotate(355.8555133079847,128.04596862021583,229.56156904607903)" fill="black" font-size="6" alignment-baseline="central" id="MT-TS2" class="label">MT-TS2</text><text x="127.85039405800518" y="226.3064767799058" text-anchor="start" transform="rotate(357.2677892449756,127.85039405800518,226.3064767799058)" fill="black" font-size="6" alignment-baseline="baseline" id="MT-TL2" class="label">MT-TL2</text><text x="133.9797901908747" y="179.72349668027223" text-anchor="start" transform="rotate(377.7240630092341,133.9797901908747,179.72349668027223)" fill="black" font-size="6" alignment-baseline="central" id="MT-ND5" class="label">MT-ND5</text><text x="163.4191582597917" y="129.58190994744007" text-anchor="start" transform="rotate(403.11243889190655,163.4191582597917,129.58190994744007)" fill="black" font-size="6" alignment-baseline="central" id="MT-ND6" class="label">MT-ND6</text><text x="174.19300463621792" y="119.30020086097548" text-anchor="start" transform="rotate(409.565453557849,174.19300463621792,119.30020086097548)" fill="black" font-size="6" alignment-baseline="central" id="MT-TE" class="label">MT-TE</text><text x="199.5205896788797" y="102.33296584340383" text-anchor="start" transform="rotate(422.7973927213471,199.5205896788797,102.33296584340383)" fill="black" font-size="6" alignment-baseline="central" id="MT-CYB" class="label">MT-CYB</text><text x="227.79175234205337" y="91.6804037459423" text-anchor="start" transform="rotate(435.90983161325363,227.79175234205337,91.6804037459423)" fill="black" font-size="6" alignment-baseline="central" id="MT-TT" class="label">MT-TT</text><text x="231.1599686121597" y="90.88167213927997" text-anchor="start" transform="rotate(437.4090168386746,231.1599686121597,90.88167213927997)" fill="black" font-size="6" alignment-baseline="baseline" id="MT-TP" class="label">MT-TP</text><filter id="blurMe"><feGaussianBlur in="SourceGraphic" stdDeviation="4"></feGaussianBlur></filter></svg>